<svg width="24" height="25" viewBox="0 0 24 25" fill="none" xmlns="http://www.w3.org/2000/svg">
<g clip-path="url(#clip0_181_655)">
<path d="M5.70901 19.0308C5.42771 18.7495 5.26967 18.368 5.26967 17.9702C5.26967 17.5724 5.42771 17.1908 5.70901 16.9095L14.1094 8.5091L8.53744 8.5091C8.14902 8.49539 7.78108 8.33145 7.51115 8.05182C7.24121 7.77219 7.09035 7.3987 7.09035 7.01003C7.09035 6.62137 7.24121 6.24788 7.51115 5.96825C7.78108 5.68862 8.14902 5.52468 8.53744 5.51097L17.7298 5.51097C18.1273 5.51121 18.5085 5.66923 18.7896 5.95031C19.0706 6.23138 19.2286 6.61253 19.2289 7.01003L19.2289 16.2024C19.2152 16.5908 19.0512 16.9588 18.7716 17.2287C18.492 17.4986 18.1185 17.6495 17.7298 17.6495C17.3412 17.6495 16.9677 17.4986 16.688 17.2287C16.4084 16.9588 16.2445 16.5908 16.2308 16.2024L16.2308 10.6304L7.83033 19.0308C7.54903 19.3122 7.1675 19.4702 6.76967 19.4702C6.37185 19.4702 5.99031 19.3122 5.70901 19.0308Z" fill="#0EA5E9"/>
</g>
<defs>
<clipPath id="clip0_181_655">
<rect width="24" height="24" fill="white" transform="translate(0 0.490601)"/>
</clipPath>
</defs>
</svg>