<svg width="32" height="32" viewBox="0 0 32 32" fill="none" xmlns="http://www.w3.org/2000/svg">
<path d="M11.8235 28C14.0374 28 15.8235 26.214 15.8235 24V20H11.8235C9.60953 20 7.82349 21.786 7.82349 24C7.82349 26.214 9.60953 28 11.8235 28Z" fill="#0ACF83"/>
<path d="M7.82349 16C7.82349 13.786 9.60953 12 11.8235 12H15.8235V20H11.8235C9.60953 20 7.82349 18.214 7.82349 16Z" fill="#A259FF"/>
<path d="M7.82349 8C7.82349 5.78605 9.60953 4 11.8235 4H15.8235V12H11.8235C9.60953 12 7.82349 10.214 7.82349 8Z" fill="#F24E1E"/>
<path d="M15.8235 4H19.8235C22.0374 4 23.8235 5.78605 23.8235 8C23.8235 10.214 22.0374 12 19.8235 12H15.8235V4Z" fill="#FF7262"/>
<path d="M23.8235 16C23.8235 18.214 22.0374 20 19.8235 20C17.6095 20 15.8235 18.214 15.8235 16C15.8235 13.786 17.6095 12 19.8235 12C22.0374 12 23.8235 13.786 23.8235 16Z" fill="#1ABCFE"/>
</svg>
