<svg width="32" height="32" viewBox="0 0 32 32" fill="none" xmlns="http://www.w3.org/2000/svg">
<path d="M5.48291 4H25.7329C26.7685 4 27.6079 4.83944 27.6079 5.875V26.125C27.6079 27.1606 26.7685 28 25.7329 28H5.48291C4.44735 28 3.60791 27.1606 3.60791 26.125V5.875C3.60791 4.83944 4.44735 4 5.48291 4Z" fill="#3178C6"/>
<path d="M17.719 22.7945V25.3839C18.1401 25.5997 18.6382 25.7615 19.2132 25.8694C19.7881 25.9773 20.3941 26.0312 21.0313 26.0312C21.6521 26.0312 22.2419 25.9719 22.8007 25.8532C23.3594 25.7345 23.8495 25.539 24.2705 25.2666C24.6916 24.9942 25.025 24.6381 25.2707 24.1984C25.5163 23.7588 25.6392 23.2154 25.6392 22.568C25.6392 22.0987 25.5689 21.6873 25.4286 21.334C25.2898 20.983 25.0834 20.6628 24.8212 20.3913C24.5567 20.1162 24.2395 19.8694 23.8697 19.6509C23.4999 19.4325 23.0828 19.2261 22.6184 19.032C22.2783 18.8916 21.9733 18.7555 21.7033 18.6233C21.4334 18.4911 21.2039 18.3563 21.015 18.2187C20.826 18.0812 20.6803 17.9355 20.5777 17.7817C20.4751 17.628 20.4238 17.4541 20.4238 17.2598C20.4238 17.0818 20.4697 16.9214 20.5615 16.7784C20.6533 16.6354 20.7829 16.5127 20.9503 16.4103C21.1176 16.3077 21.3227 16.2282 21.5657 16.1715C21.8086 16.1148 22.0786 16.0865 22.3755 16.0865C22.5915 16.0865 22.8196 16.1027 23.0598 16.1351C23.3001 16.1674 23.5417 16.2173 23.7847 16.2848C24.0269 16.352 24.2638 16.4372 24.4933 16.5397C24.7158 16.6383 24.9286 16.7575 25.129 16.8957V14.4763C24.7348 14.3253 24.3043 14.2133 23.8373 14.1405C23.3703 14.0676 22.8344 14.0312 22.2298 14.0312C21.6143 14.0312 21.0313 14.0973 20.4806 14.2295C19.9299 14.3616 19.4453 14.568 19.0269 14.8485C18.6085 15.1291 18.2778 15.4864 18.0348 15.9207C17.7919 16.3549 17.6704 16.8741 17.6704 17.4783C17.6704 18.2497 17.8931 18.9078 18.3386 19.4527C18.784 19.9975 19.4601 20.4587 20.3671 20.8364C20.702 20.9727 21.0341 21.1157 21.3632 21.2653C21.671 21.4055 21.9369 21.5511 22.1609 21.7022C22.385 21.8532 22.5618 22.0177 22.6914 22.1957C22.8209 22.3738 22.8857 22.5761 22.8857 22.8027C22.8868 22.9658 22.8449 23.1262 22.7642 23.268C22.6833 23.4108 22.5604 23.535 22.3958 23.6402C22.2312 23.7453 22.0259 23.8276 21.7803 23.8869C21.5347 23.9462 21.2472 23.976 20.9178 23.976C20.3563 23.976 19.8003 23.8775 19.2496 23.6806C18.6988 23.4837 18.1887 23.1884 17.719 22.7945ZM13.4031 16.3508H16.7329V14.2188H7.45166V16.3508H10.7653V25.8438H13.4031V16.3508Z" fill="white"/>
</svg>
